<svg version="1.2" xmlns="http://www.w3.org/2000/svg" viewBox="161 233 273 243" width="273" height="243">
	<title>Triagnel</title>
	<style>
		.s0 { fill: #00000;stroke: #FFFFFF;stroke-miterlimit:10;stroke-width: 0 } 
	</style>
	<g id="Layer 1">
		<path id="Shape 4" fill-rule="evenodd" class="s0" d="m432 449v1c0 13.8-11.2 25-25 25h-220c-13.8 0-25-11.2-25-25v-1c0-13.8 11.2-25 25-25h220c13.8 0 25 11.2 25 25z"/>
		<path id="Shape 4 copy" fill-rule="evenodd" class="s0" d="m284.9 237.4l0.9-0.5c11.9-6.9 27.2-2.8 34.1 9.2l110 190.5c6.9 12 2.8 27.2-9.1 34.1l-0.9 0.5c-11.9 6.9-27.2 2.9-34.1-9.1l-110-190.5c-6.9-12-2.8-27.3 9.1-34.2z"/>
		<path id="Shape 4 copy 2" fill-rule="evenodd" class="s0" d="m309.6 237.3l0.8 0.5c12 6.9 16 22.2 9.1 34.1l-110.6 190.2c-7 12-22.3 16-34.2 9.1l-0.9-0.5c-11.9-7-16-22.3-9-34.2l110.6-190.2c6.9-11.9 22.2-16 34.2-9z"/>
	</g>
</svg>